<svg xmlns="http://www.w3.org/2000/svg" width="256" height="256" viewBox="0 0 100 100"><rect width="100" height="100" rx="20" fill="#cfc6bd"></rect><path fill="#fff" d="M46.89 78.39Q44.28 78.39 40.86 78.13L40.86 78.13Q39.61 78.03 37.67 77.94Q35.73 77.85 33.39 77.85L33.39 77.85L27.27 77.94Q25.66 78.03 22.77 78.03L22.77 78.03Q22.59 78.03 22.59 77.49Q22.59 76.95 22.77 76.95L22.77 76.95Q26.20 76.95 27.77 76.50Q29.34 76.05 29.93 74.75Q30.52 73.44 30.52 70.74L30.52 70.74L30.52 29.07Q30.52 26.38 29.98 25.12Q29.44 23.85 27.86 23.36Q26.29 22.87 22.86 22.87L22.86 22.87Q22.68 22.87 22.68 22.32Q22.68 21.78 22.86 21.78L22.86 21.78L27.36 21.88Q31.14 22.05 33.39 22.05L33.39 22.05Q36.81 22.05 40.14 21.78L40.14 21.78Q44.11 21.60 45.63 21.60L45.63 21.60Q54.99 21.60 62.24 25.20Q69.48 28.80 73.44 35.02Q77.41 41.23 77.41 48.96L77.41 48.96Q77.41 57.69 73.31 64.40Q69.22 71.10 62.20 74.75Q55.17 78.39 46.89 78.39L46.89 78.39ZM45.99 77.05Q53.20 77.05 58.77 74.03Q64.35 71.02 67.46 65.12Q70.56 59.22 70.56 50.94L70.56 50.94Q70.56 43.11 67.59 36.73Q64.63 30.34 59.13 26.64Q53.64 22.95 46.45 22.95L46.45 22.95Q42.58 22.95 40.46 23.41Q38.34 23.85 37.36 25.20Q36.36 26.55 36.36 29.25L36.36 29.25L36.36 69.75Q36.36 72.45 37.13 73.98Q37.89 75.52 40.01 76.28Q42.13 77.05 45.99 77.05L45.99 77.05Z"></path></svg>