<?xml version="1.0" encoding="UTF-8"?>
<svg id="Lag_1" data-name="Lag 1" xmlns="http://www.w3.org/2000/svg" viewBox="0 0 421.97 472.04">
  <defs>
    <style>
      .cls-1 {
        fill: #4a3f38;
        font-family: MyriadPro-Regular, 'Myriad Pro';
        font-size: 79.43px;
      }

      .cls-2 {
        fill: #6c5a4d;
        font-family: Cormorant-MediumItalic, Cormorant;
        font-size: 46.28px;
        font-style: italic;
        font-weight: 500;
      }
    </style>
  </defs>
  <text class="cls-1" transform="translate(87.42 208.29) rotate(-66.06) skewX(.03)"><tspan x="0" y="0">P</tspan></text>
  <text class="cls-1" transform="translate(101.4 172.55) rotate(-46.65) skewX(-.08)"><tspan x="0" y="0">O</tspan></text>
  <text class="cls-1" transform="translate(136.2 136.13) rotate(-26.86) skewX(-.15)"><tspan x="0" y="0">R</tspan></text>
  <text class="cls-1" transform="translate(171.54 118.04) rotate(-10.04) skewX(-.16)"><tspan x="0" y="0">T</tspan></text>
  <text class="cls-1" transform="translate(206.83 111.37) rotate(5.89) skewX(-.12)"><tspan x="0" y="0">F</tspan></text>
  <text class="cls-1" transform="translate(241.67 113.03) rotate(24.8) skewX(-.02)"><tspan x="0" y="0">O</tspan></text>
  <text class="cls-1" transform="translate(287.11 134.85) rotate(43.33) skewX(.08)"><tspan x="0" y="0">L</tspan></text>
  <text class="cls-1" transform="translate(311.88 159.11) rotate(54.72) skewX(.13)"><tspan x="0" y="0">I</tspan></text>
  <text class="cls-1" transform="translate(323.31 170.64) rotate(69.56) skewX(.16)"><tspan x="0" y="0">O</tspan></text>
  <text class="cls-2" transform="translate(341.72 236.4) rotate(94.14) skewX(.07)"><tspan x="0" y="0">D</tspan></text>
  <text class="cls-2" transform="translate(339.49 263.69) rotate(104.31) skewX(-.03)"><tspan x="0" y="0">a</tspan></text>
  <text class="cls-2" transform="translate(334.9 282.23) rotate(113.03) skewX(-.11)"><tspan x="0" y="0">n</tspan></text>
  <text class="cls-2" transform="translate(326.55 301.23) rotate(119.98) skewX(-.17)"><tspan x="0" y="0">i</tspan></text>
  <text class="cls-2" transform="translate(321.36 310.54) rotate(125.77) skewX(-.21)"><tspan x="0" y="0">e</tspan></text>
  <text class="cls-2" transform="translate(312.34 322.91) rotate(131.53) skewX(-.25)"><tspan x="0" y="0">l</tspan></text>
  <text class="cls-2" transform="translate(305.41 330.78) rotate(136.23) skewX(-.27)"><tspan x="0" y="0">l</tspan></text>
  <text class="cls-2" transform="translate(298.22 338.09) rotate(142.82) skewX(-.28)"><tspan x="0" y="0">a</tspan></text>
  <text class="cls-2" transform="translate(282.7 349.59) rotate(149.26) skewX(-.28)"><tspan x="0" y="0"> </tspan></text>
  <text class="cls-2" transform="translate(274.64 355.23) rotate(157.59) skewX(-.26)"><tspan x="0" y="0">D</tspan></text>
  <text class="cls-2" transform="translate(249.37 365.43) rotate(168.31) skewX(-.21)"><tspan x="0" y="0">u</tspan></text>
  <text class="cls-2" transform="translate(229.42 369.66) rotate(177.49) skewX(-.14)"><tspan x="0" y="0">n</tspan></text>
  <text class="cls-2" transform="translate(208.64 370.42) rotate(-174.45) skewX(-.06)"><tspan x="0" y="0">c</tspan></text>
  <text class="cls-2" transform="translate(193.98 369.22) rotate(-166.96) skewX(.01)"><tspan x="0" y="0">a</tspan></text>
  <text class="cls-2" transform="translate(175.39 365.06) rotate(-158.15) skewX(.1)"><tspan x="0" y="0">n</tspan></text>
  <text class="cls-2" transform="translate(156.31 357.12) rotate(-151.3) skewX(.16)"><tspan x="0" y="0"> </tspan></text>
  <text class="cls-2" transform="translate(147.41 353.11) rotate(-142.84) skewX(.22)"><tspan x="0" y="0">G</tspan></text>
  <text class="cls-2" transform="translate(125.48 336.05) rotate(-132.67) skewX(.27)"><tspan x="0" y="0">ø</tspan></text>
  <text class="cls-2" transform="translate(113.39 322.78) rotate(-125.84) skewX(.28)"><tspan x="0" y="0">t</tspan></text>
  <text class="cls-2" transform="translate(105.77 312.3) rotate(-120.18) skewX(.28)"><tspan x="0" y="0">t</tspan></text>
  <text class="cls-2" transform="translate(99.19 301.2) rotate(-113.96) skewX(.27)"><tspan x="0" y="0">e</tspan></text>
  <text class="cls-2" transform="translate(92.98 287.35) rotate(-107.22) skewX(.24)"><tspan x="0" y="0">r</tspan></text>
  <text class="cls-2" transform="translate(88.3 273.16) rotate(-99.3) skewX(.19)"><tspan x="0" y="0">u</tspan></text>
  <text class="cls-2" transform="translate(85 252.87) rotate(-90.83) skewX(.12)"><tspan x="0" y="0">p</tspan></text>
</svg>